HIERARCHY
ROOT root
{
	OFFSET	0	13.1	24.9
	CHANNELS 6  Xposition Yposition Zposition Xrotation Yrotation Zrotation
	JOINT spine_1
	{
		OFFSET	0	9.99999	0
		CHANNELS 3  Xrotation Yrotation Zrotation
		JOINT spine_2
		{
			OFFSET	0	112	-10
			CHANNELS 3  Xrotation Yrotation Zrotation
			JOINT spine_3
			{
				OFFSET	0	206.5	19.3
				CHANNELS 3  Xrotation Yrotation Zrotation
				JOINT spine_4
				{
					OFFSET	0	110.4	14.6
					CHANNELS 3  Xrotation Yrotation Zrotation
					JOINT neck_1
					{
						OFFSET	0	71.8	-50.3
						CHANNELS 3  Xrotation Yrotation Zrotation
						JOINT neck_2
						{
							OFFSET	0	86.2	-25.8
							CHANNELS 3  Xrotation Yrotation Zrotation
							JOINT head_ee
							{
								OFFSET	0	179.8	-8.7
								CHANNELS 3  Xrotation Yrotation Zrotation
								End Site
								{
									OFFSET	1	0	0
								}
							}
						}
					}
					JOINT left_clavicle
					{
						OFFSET	-43.2	22.4	-70.8
						CHANNELS 3  Xrotation Yrotation Zrotation
						JOINT left_shoulder
						{
							OFFSET	-93.9	-5.79999	48.7
							CHANNELS 3  Xrotation Yrotation Zrotation
							JOINT left_elbow
							{
								OFFSET	-291.4	-30.8	15.2
								CHANNELS 3  Xrotation Yrotation Zrotation
								JOINT left_lowarm_twist
								{
									OFFSET	-110.7	-3.89999	13.6
									CHANNELS 3  Xrotation Yrotation Zrotation
									JOINT left_hand
									{
										OFFSET	-110.7	-3.89999	13.6
										CHANNELS 3  Xrotation Yrotation Zrotation
										JOINT left_ee
										{
											OFFSET	-80.8	-5.10001	12.1
											CHANNELS 3  Xrotation Yrotation Zrotation
											End Site
											{
												OFFSET	1	0	0
											}
										}
									}
								}
							}
						}
					}
					JOINT right_clavicle
					{
						OFFSET	43.2	22.4	-70.8
						CHANNELS 3  Xrotation Yrotation Zrotation
						JOINT right_shoulder
						{
							OFFSET	93.9	-5.79999	48.7
							CHANNELS 3  Xrotation Yrotation Zrotation
							JOINT right_elbow
							{
								OFFSET	291.4	-30.8	15.2
								CHANNELS 3  Xrotation Yrotation Zrotation
								JOINT right_lowarm_twist
								{
									OFFSET	110.7	-3.89999	13.6
									CHANNELS 3  Xrotation Yrotation Zrotation
									JOINT right_hand
									{
										OFFSET	110.7	-3.89999	13.6
										CHANNELS 3  Xrotation Yrotation Zrotation
										JOINT right_ee
										{
											OFFSET	80.8	-5.10001	12.1
											CHANNELS 3  Xrotation Yrotation Zrotation
											End Site
											{
												OFFSET	1	0	0
											}
										}
									}
								}
							}
						}
					}
				}
			}
		}
	}
	JOINT left_hip
	{
		OFFSET	-82.8	-127.5	0.300001
		CHANNELS 3  Xrotation Yrotation Zrotation
		JOINT left_knee
		{
			OFFSET	-28.2	-396.7	2.2
			CHANNELS 3  Xrotation Yrotation Zrotation
			JOINT left_ankle
			{
				OFFSET	-11.7	-411.3	35.4
				CHANNELS 3  Xrotation Yrotation Zrotation
				JOINT left_toes
				{
					OFFSET	0	-60	-88.6
					CHANNELS 3  Xrotation Yrotation Zrotation
					JOINT left_foot_ee
					{
						OFFSET	-22.5	-16.5	-42.2
						CHANNELS 3  Xrotation Yrotation Zrotation
						End Site
						{
							OFFSET	1	0	0
						}
					}
				}
			}
		}
	}
	JOINT right_hip
	{
		OFFSET	82.8	-127.5	0.300001
		CHANNELS 3  Xrotation Yrotation Zrotation
		JOINT right_knee
		{
			OFFSET	28.2	-396.7	2.2
			CHANNELS 3  Xrotation Yrotation Zrotation
			JOINT right_ankle
			{
				OFFSET	11.7	-411.3	35.4
				CHANNELS 3  Xrotation Yrotation Zrotation
				JOINT right_toes
				{
					OFFSET	0	-60	-88.6
					CHANNELS 3  Xrotation Yrotation Zrotation
					JOINT right_foot_ee
					{
						OFFSET	22.5	-16.5	-42.2
						CHANNELS 3  Xrotation Yrotation Zrotation
						End Site
						{
							OFFSET	1	0	0
						}
					}
				}
			}
		}
	}
}
MOTION
Frames: 14
Frame Time: 0.02
2461.99 673.233 -1537.34 0.707789 59.957 -7.24018 2.31519 0.912323 3.24198 2.32076 0.704294 3.29338 2.36092 0.135677 3.36504 2.34574 0.665127 3.30151 -17.3542 17.7218 -1.69346 -18.9873 34.9507 5.71468 -0.0 0.0 -0.0 -7.93086 23.7461 -8.20152 13.017 -21.8645 64.2672 3.25593 -58.1878 1.81211 -13.7606 -0.682695 1.61738 -0.807882 6.03415 -2.76244 -0.0 0.0 -0.0 10.9764 10.5887 -21.9808 -24.1782 13.4527 -68.7193 0.55587 15.3957 -0.0751358 14.9205 -0.282382 1.87967 1.96358 10.7229 -8.72305 0.0 0.0 0.0 -33.9612 34.1938 19.7735 -6.59053 0.214709 0.988107 37.4929 -18.3768 -5.05529 -35.2847 0.0 0.0 -0.0 0.0 -0.0 28.6234 18.5043 -10.3904 -5.48722 -0.186717 -0.821107 12.4728 -5.166 1.75894 -11.9251 0.0 0.0 0.0 0.0 0.0 
2440.56 669.551 -1544.03 1.28319 61.7048 -7.46008 2.2905 0.82579 3.21275 2.29603 0.619793 3.25872 2.33095 0.0563975 3.31659 2.31606 0.579201 3.26617 -16.9067 17.6147 -2.2816 -18.4718 35.0602 4.96154 -0.0 0.0 -0.0 -8.26929 23.8735 -8.63901 11.2367 -23.1194 65.0184 3.07963 -56.7433 1.66346 -14.801 -0.749839 1.73237 -0.556536 6.33149 -0.991292 -0.0 0.0 -0.0 11.2279 11.0484 -22.5372 -23.7755 12.7858 -69.3477 0.387419 10.8641 -0.0368405 15.0624 -0.282702 1.8978 2.06689 9.83967 -9.81702 0.0 0.0 0.0 -33.8419 32.116 18.114 -7.01739 0.224675 1.05285 38.4819 -18.8992 -5.16904 -37.9929 0.0 0.0 -0.0 0.0 -0.0 28.8777 18.0211 -9.96615 -7.51152 -0.235609 -1.12789 12.3572 -4.31634 1.74474 -11.0635 0.0 0.0 0.0 0.0 0.0 
2415.04 673.184 -1553.65 1.02799 63.1891 -7.13389 2.28052 0.545924 3.23316 2.28627 0.339196 3.2613 2.30503 -0.222492 3.27132 2.29022 0.296663 3.26544 -16.014 17.143 -3.74097 -17.396 34.9674 3.07113 -0.0 0.0 -0.0 -8.6792 24.078 -9.14894 8.28145 -23.4339 65.5742 2.65023 -52.6942 1.31271 -15.8964 -0.822787 1.85211 -0.525657 7.50145 -0.28982 -0.0 0.0 -0.0 11.4428 11.154 -23.0178 -22.7155 12.8718 -70.0728 0.365528 10.2637 -0.0328274 15.2769 -0.283101 1.92519 2.10074 9.04088 -10.3983 0.0 0.0 0.0 -30.9821 29.7152 14.9121 -10.9545 0.293772 1.65293 38.5252 -19.0062 -5.17736 -40.1582 0.0 0.0 -0.0 0.0 -0.0 28.3755 17.6794 -10.0729 -10.1199 -0.282573 -1.52536 14.891 -2.57444 2.08615 -9.86341 0.0 0.0 0.0 0.0 0.0 
2401.38 674.165 -1560.43 1.36254 63.5795 -7.30084 2.2299 0.370501 3.25806 2.23579 0.162544 3.27501 2.24447 -0.402621 3.25425 2.22971 0.116095 3.27699 -16.3519 16.783 -3.15346 -17.7016 33.9489 3.56504 -0.0 0.0 -0.0 -8.82302 23.666 -9.51357 6.9919 -23.6649 65.8504 2.19655 -47.41 0.964543 -15.7017 -0.809654 1.83093 -0.230828 6.99693 1.41309 -0.0 0.0 -0.0 11.5078 12.3857 -23.1475 -21.7693 13.2397 -71.0761 0.405928 11.3699 -0.0404096 14.4697 -0.281068 1.82211 1.61431 5.18591 -8.7178 0.0 0.0 0.0 -28.2714 29.1797 12.703 -15.9732 0.321853 2.4222 38.6166 -16.2201 -5.08214 -40.1564 0.0 0.0 -0.0 0.0 -0.0 27.5495 17.2635 -10.2058 -10.4116 -0.286699 -1.56993 17.9333 -3.82312 2.47584 -8.87219 0.0 0.0 0.0 0.0 0.0 
2382.67 680.529 -1566.45 1.32466 63.0306 -7.15213 2.21546 0.399066 3.3126 2.22154 0.187588 3.33125 2.23186 -0.388319 3.31387 2.21656 0.139618 3.3336 -17.5637 17.2728 -1.92802 -19.1473 34.22 5.35318 -0.0 0.0 -0.0 -8.83848 23.5264 -9.58966 4.00297 -24.1791 66.5147 1.85157 -42.5232 0.720519 -15.1775 -0.774651 1.77368 -0.31123 9.59959 1.97954 -0.0 0.0 -0.0 11.9643 13.8047 -24.1521 -20.2563 13.7248 -71.9633 0.615096 16.9461 -0.0916321 15.9615 -0.283687 2.01263 2.12071 5.3932 -12.1022 0.0 0.0 0.0 -22.0675 27.8546 9.07216 -25.1085 0.200135 3.8172 32.876 -13.6144 -4.43878 -39.7348 0.0 0.0 -0.0 0.0 -0.0 25.349 16.5862 -9.66407 -9.00709 -0.264751 -1.35554 18.3986 -3.18514 2.53664 -10.7758 0.0 0.0 0.0 0.0 0.0 
2368.36 685.229 -1572.75 2.20744 61.9255 -7.97097 2.29791 0.338416 3.35662 2.30417 0.124264 3.37133 2.31069 -0.453109 3.34309 2.2951 0.0802447 3.37266 -17.8516 16.8446 -2.20947 -19.4031 33.5521 4.98493 -0.0 0.0 -0.0 -8.6129 21.6107 -9.97968 0.955535 -24.3372 67.0963 1.40619 -34.8585 0.44148 -14.3725 -0.721932 1.68516 -0.128575 10.4511 3.50192 -0.0 0.0 -0.0 12.4462 18.1446 -25.0799 -17.0082 12.7942 -73.5301 0.749476 20.3683 -0.13464 16.3186 -0.283578 2.05823 1.84334 2.20076 -11.5215 0.0 0.0 0.0 -17.3208 25.4996 6.00067 -35.1854 -0.189208 5.31262 34.7097 -11.1332 -4.5621 -38.1594 0.0 0.0 -0.0 0.0 -0.0 23.3755 16.646 -9.96548 -7.70748 -0.239766 -1.15768 18.5061 -1.21383 2.55796 -10.1883 0.0 0.0 0.0 0.0 0.0 
2348.15 688.426 -1574.56 2.46821 60.2085 -8.1288 2.32777 0.295938 3.38197 2.33413 0.0802615 3.39393 2.33799 -0.498802 3.35808 2.32226 0.0374858 3.39467 -17.5119 16.6262 -0.993466 -18.9101 32.4767 5.86104 -0.0 0.0 -0.0 -8.90028 21.5708 -10.4306 -1.61542 -24.6192 68.8805 1.16728 -30.037 0.313185 -14.1131 -0.705211 1.65648 0.395707 9.57838 6.5238 -0.0 0.0 -0.0 12.2792 20.3205 -24.5529 -15.5166 14.0823 -74.1979 0.862733 23.1403 -0.176629 16.0072 -0.283689 2.01846 1.81013 1.02631 -11.7717 0.0 0.0 0.0 -12.7678 23.9679 4.18638 -45.2299 -0.832559 6.71436 36.5863 -7.32136 -4.66319 -35.7545 0.0 0.0 -0.0 0.0 -0.0 20.6805 16.7794 -9.42198 -7.19929 -0.228776 -1.08047 22.7725 2.63312 3.11091 -9.49775 0.0 0.0 0.0 0.0 0.0 
2331.52 693.191 -1577.22 2.69084 60.3453 -8.5782 2.16663 0.397415 3.44914 2.17323 0.177266 3.46741 2.18339 -0.424891 3.44587 2.16684 0.124313 3.46971 -17.16 16.5651 -1.11103 -18.5029 32.4145 5.60579 -0.0 0.0 -0.0 -9.05937 22.0864 -10.4731 -3.0734 -24.6088 69.848 1.0974 -28.5285 0.279002 -14.0899 -0.703717 1.6539 0.474598 9.33032 6.93713 -0.0 0.0 -0.0 12.3213 20.5421 -24.6334 -14.2544 14.3154 -74.0368 0.889279 23.7743 -0.187196 15.9852 -0.283688 2.01565 1.80957 1.28049 -11.665 0.0 0.0 0.0 -11.2565 24.3168 2.83698 -45.6585 -0.865425 6.77154 37.0892 -7.65731 -4.71638 -35.3632 0.0 0.0 -0.0 0.0 -0.0 19.8927 16.6182 -8.88038 -8.3841 -0.253334 -1.26062 22.5598 1.99772 3.07974 -9.49414 0.0 0.0 0.0 0.0 0.0 
2319.45 697.524 -1580.68 1.44559 60.3207 -7.25438 2.23172 0.471243 3.5235 2.23859 0.246223 3.54631 2.25317 -0.366199 3.53594 2.23578 0.196471 3.54941 -16.6499 16.5552 -0.967363 -17.9127 32.3009 5.55978 -0.0 0.0 -0.0 -9.11679 22.8313 -10.2683 -4.36719 -24.7598 70.8962 1.01652 -26.7271 0.241491 -14.1166 -0.705434 1.65686 0.532115 9.15984 7.24355 -0.0 0.0 -0.0 12.4507 20.7271 -24.9179 -12.3762 14.9623 -74.4473 0.939829 24.9646 -0.208055 15.7939 -0.28364 1.99122 1.83895 1.55283 -11.7556 0.0 0.0 0.0 -9.90528 24.0904 1.73858 -45.7056 -0.869057 6.7778 37.7498 -7.92509 -4.78238 -34.8394 0.0 0.0 -0.0 0.0 -0.0 18.9875 16.8256 -8.68953 -6.82286 -0.220194 -1.02334 22.3943 2.4113 3.06329 -9.51333 0.0 0.0 0.0 0.0 0.0 
2301.4 697.147 -1584.67 1.11543 61.1027 -6.92557 2.21419 0.586929 3.48283 2.22087 0.364258 3.51306 2.24269 -0.244624 3.5234 2.2255 0.314549 3.51786 -15.5239 16.3117 -1.81143 -16.6258 32.2744 4.30146 -0.0 0.0 -0.0 -9.18057 23.028 -10.2853 -6.84294 -25.1075 72.3549 0.89434 -23.8945 0.189241 -14.0423 -0.700668 1.64863 0.617073 8.73147 7.62898 -0.0 0.0 -0.0 12.617 21.5427 -25.2375 -10.4393 15.4901 -74.2186 1.00662 26.5026 -0.237058 15.5604 -0.28347 1.9614 1.96747 2.20692 -12.3711 0.0 0.0 0.0 -9.20061 24.5224 0.903432 -46.4487 -0.927135 6.87632 38.2058 -8.52205 -4.83573 -33.9819 0.0 0.0 -0.0 0.0 -0.0 17.7005 16.3468 -8.33504 -7.31041 -0.231238 -1.09734 22.2945 1.7099 3.04534 -9.39221 0.0 0.0 0.0 0.0 0.0 
2289.03 702.11 -1583.58 1.66164 61.5959 -7.60629 2.12013 0.523839 3.65724 2.12752 0.290219 3.68312 2.14572 -0.353202 3.67762 2.12692 0.231635 3.68726 -15.0574 16.3089 -1.34796 -16.0784 31.984 4.57283 -0.0 0.0 -0.0 -9.27594 23.3366 -10.3034 -7.74893 -25.2432 72.8391 0.802259 -21.6735 0.153575 -13.9932 -0.697524 1.64319 0.812806 8.42219 8.78738 -0.0 0.0 -0.0 12.5051 20.9562 -25.0258 -10.2913 15.8083 -74.6917 1.07423 28.0187 -0.26803 14.9722 -0.282504 1.88627 1.9184 2.77102 -11.8025 0.0 0.0 0.0 -7.85019 25.6773 -0.723872 -46.6725 -0.944871 6.90584 38.8435 -8.57082 -4.89398 -32.9684 0.0 0.0 -0.0 0.0 -0.0 16.0393 17.0274 -7.24091 -6.39527 -0.20999 -0.958514 22.5868 2.70399 3.08917 -9.21391 0.0 0.0 0.0 0.0 0.0 
2273.0 705.918 -1583.52 0.724963 63.5078 -7.06648 2.17329 0.487305 3.72135 2.18096 0.249689 3.74477 2.19665 -0.400599 3.73166 2.17727 0.193348 3.7481 -13.9006 16.0796 -1.97124 -14.7557 31.8638 3.5239 -0.0 0.0 -0.0 -9.30596 23.6689 -10.2144 -8.74903 -25.0039 73.7895 0.730359 -19.89 0.128061 -13.8062 -0.685596 1.62245 0.97551 7.53561 9.51524 -0.0 0.0 -0.0 12.4847 21.0966 -24.9678 -9.61667 16.3335 -74.2849 1.14158 29.4873 -0.300426 14.3278 -0.28056 1.804 1.96475 3.65997 -11.7538 0.0 0.0 0.0 -6.15592 26.5448 -1.55431 -46.9915 -0.970363 6.9478 38.0302 -8.95309 -4.82874 -31.6899 0.0 0.0 -0.0 0.0 -0.0 14.1181 16.9333 -5.5352 -5.97398 -0.199463 -0.894719 25.1622 2.65593 3.39383 -8.05997 0.0 0.0 0.0 0.0 0.0 
2258.59 707.461 -1582.91 1.44227 63.6804 -7.88669 2.04905 0.790048 3.68829 2.05645 0.553919 3.73101 2.09244 -0.104772 3.77039 2.07295 0.491581 3.73972 -13.0537 15.6655 -2.88249 -13.7694 31.5953 2.24042 -0.0 0.0 -0.0 -9.11905 23.8662 -9.86423 -9.82885 -25.3789 74.2659 0.713228 -19.459 0.122293 -13.9457 -0.694487 1.63793 0.960294 7.30289 9.32541 -0.0 0.0 -0.0 12.622 21.9354 -25.2158 -8.40022 17.2543 -74.1046 1.14697 29.6033 -0.303088 14.1274 -0.279767 1.77841 2.04076 4.99661 -11.7185 0.0 0.0 0.0 -4.76873 26.5883 -1.88901 -45.9603 -0.888818 6.81165 39.0882 -9.11796 -4.92724 -31.4497 0.0 0.0 -0.0 0.0 -0.0 12.0463 17.203 -4.70624 -5.3984 -0.184323 -0.807686 26.0347 2.31376 3.49121 -7.78243 0.0 0.0 0.0 0.0 0.0 
2251.7 716.474 -1580.79 2.04433 64.5353 -9.21304 1.63365 1.00107 4.08074 1.64261 0.739598 4.13604 1.69714 -0.0211574 4.20148 1.67309 0.642073 4.15227 -13.6305 14.9641 -2.58985 -14.3391 30.1012 2.43771 -0.0 0.0 -0.0 -8.89537 23.0528 -9.85515 -11.6396 -25.1574 74.7126 0.689934 -18.8691 0.114647 -13.7862 -0.684319 1.62022 1.04565 7.32742 9.8982 -0.0 0.0 -0.0 12.4372 20.9031 -24.8733 -7.8734 18.4694 -73.7599 1.27656 32.3067 -0.369762 12.9819 -0.273517 1.63223 2.10966 6.82313 -11.418 0.0 0.0 0.0 -3.67962 31.334 -3.0793 -42.681 -0.646083 6.36947 39.2725 -10.7551 -4.98117 -31.4978 0.0 0.0 -0.0 0.0 -0.0 10.3432 17.3431 -3.04471 -4.07164 -0.146097 -0.607663 23.8506 1.37043 3.22876 -6.99874 0.0 0.0 0.0 0.0 0.0 
